# xmcd
#
# Track frame offsets:
#	150
#	18699
#	30505
#	49689
#	66592
#	77559
#	87014
#	98935
#	105304
#	119302
#	159245
#	177345
#	202158
#	219214
#	236061
#	249916
#	265207
#
# Disc length: 3586 seconds
#
# Revision: 0
# Processed by: cddbd v1.5.1PL2 Copyright (c) Steve Scherf et al.
# Submitted via: dBpowerAMP V4.0
#
DISCID=dd0e0011
DTITLE=Stevie Wonder - The secret life of Plants
DYEAR=1979
DGENRE=Blues
TTITLE0=Earth's creation
TTITLE1=The first garden
TTITLE2=Voyage to india
TTITLE3=Same old story
TTITLE4=Venus' flytraqp and the bug
TTITLE5=Ai no, sono
TTITLE6=Seasons
TTITLE7=power flower
TTITLE8=Send one your love (instrumental)
TTITLE9=Race babbling
TTITLE10=Send One Your Love [Vocal Version] 2
TTITLE11=Outside My Window 2
TTITLE12=Black Orchid 2
TTITLE13=Ecclesiastes 2
TTITLE14=Kesse Ye Lolo de Ye 2
TTITLE15=Come Back as a Flower 2
TTITLE16=Seed's a Star/Tree Medley 2
EXTD=Volumen 1 1979 CD 37463-6127-2
EXTT0=
EXTT1=
EXTT2=
EXTT3=
EXTT4=
EXTT5=
EXTT6=
EXTT7=
EXTT8=
EXTT9=
EXTT10=
EXTT11=
EXTT12=
EXTT13=
EXTT14=
EXTT15=
EXTT16=
PLAYORDER=
